<?xml version="1.0" encoding="UTF-8" standalone="no"?>
<!-- Created with Inkscape (http://www.inkscape.org/) -->

<svg
   version="1.1"
   id="svg228"
   width="32"
   height="32"
   viewBox="0 0 32 32"
   xml:space="preserve"
   sodipodi:docname="icon.svg"
   inkscape:version="1.2.2 (b0a8486541, 2022-12-01)"
   xmlns:inkscape="http://www.inkscape.org/namespaces/inkscape"
   xmlns:sodipodi="http://sodipodi.sourceforge.net/DTD/sodipodi-0.dtd"
   xmlns="http://www.w3.org/2000/svg"
   xmlns:svg="http://www.w3.org/2000/svg"><sodipodi:namedview
     id="namedview821"
     pagecolor="#ffffff"
     bordercolor="#999999"
     borderopacity="1"
     inkscape:showpageshadow="0"
     inkscape:pageopacity="0"
     inkscape:pagecheckerboard="0"
     inkscape:deskcolor="#d1d1d1"
     showgrid="false"
     inkscape:zoom="7.8100119"
     inkscape:cx="9.4750176"
     inkscape:cy="8.4506914"
     inkscape:window-width="1366"
     inkscape:window-height="683"
     inkscape:window-x="0"
     inkscape:window-y="0"
     inkscape:window-maximized="1"
     inkscape:current-layer="g356" /><defs
     id="defs232" /><g
     id="g234"
     transform="translate(-0.03101343,0.05531365)"><g
       id="g356"><rect
         style="display:inline;fill:#00a2ff;fill-opacity:1;stroke-width:5"
         id="rect2868"
         width="32"
         height="32"
         x="0.031013429"
         y="-0.055313651" /><path
         style="fill:#fefefe"
         d="M 16,15.5 V 14 H 17.5 19 V 15.5 17 H 17.5 16 Z"
         id="path362" /><path
         style="fill:#eee3af"
         d="M 10,27.5 V 26 H 7 4 V 24.5 23 H 5.5 7 V 18.5 14 H 8.5 10 v 3 3 H 11.5 13 V 15.5 11 h 1.5 1.5 v 3 3 h 3 3 V 15.5 14 H 23.5 25 V 15.5 17 H 26.5 28 V 18.5 20 H 26.5 25 v 1.5 1.5 h -3 -3 v 1.5 1.5 h 1.5 1.5 v 1.5 1.5 h -6 -6 z m 9,-18 V 8 H 20.5 22 V 9.5 11 H 20.5 19 Z"
         id="path360" /><path
         style="fill:#000000"
         d="M 19,24.5 V 23 h 3 3 V 24.5 26 H 22 19 Z M 4,14 V 5 H 5.5 7 V 3.5 2 h 9 9 V 3.5 5 h 1.5 1.5 v 3 3 H 26.5 25 V 12.5 14 H 23.5 22 V 15.5 17 H 20.5 19 V 15.5 14 H 17.5 16 V 12.5 11 H 14.5 13 V 15.5 20 H 11.5 10 V 17 14 H 8.5 7 V 18.5 23 H 5.5 4 Z M 22,9.5 V 8 H 20.5 19 V 9.5 11 h 1.5 1.5 z"
         id="path358" /><g
         id="g267"><path
           style="fill:#fefefe"
           d="M 16,15.5 V 14 H 17.5 19 V 15.5 17 H 17.5 16 Z"
           id="path258" /><path
           style="fill:#eee3af"
           d="M 10,27.5 V 26 H 7 4 V 24.5 23 H 5.5 7 V 18.5 14 H 8.5 10 v 3 3 H 11.5 13 V 15.5 11 h 1.5 1.5 v 3 3 h 3 3 V 15.5 14 H 23.5 25 V 15.5 17 H 26.5 28 V 18.5 20 H 26.5 25 v 1.5 1.5 h -3 -3 v 1.5 1.5 h 1.5 1.5 v 1.5 1.5 h -6 -6 z m 9,-18 V 8 H 20.5 22 V 9.5 11 H 20.5 19 Z"
           id="path260" /><path
           style="fill:#000000"
           d="M 19,24.5 V 23 h 3 3 V 24.5 26 H 22 19 Z M 4,14 V 5 H 5.5 7 V 3.5 2 h 9 9 V 3.5 5 h 1.5 1.5 v 3 3 H 26.5 25 V 12.5 14 H 23.5 22 V 15.5 17 H 20.5 19 V 15.5 14 H 17.5 16 V 12.5 11 H 14.5 13 V 15.5 20 H 11.5 10 V 17 14 H 8.5 7 V 18.5 23 H 5.5 4 Z M 22,9.5 V 8 H 20.5 19 V 9.5 11 h 1.5 1.5 z"
           id="path262" /><path
           style="fill:#fefefe"
           d="M 16,15.5 V 14 H 17.5 19 V 15.5 17 H 17.5 16 Z"
           id="path269" /><path
           style="fill:#eee3af"
           d="M 10,27.5 V 26 H 7 4 V 24.5 23 H 5.5 7 V 18.5 14 H 8.5 10 v 3 3 H 11.5 13 V 15.5 11 h 1.5 1.5 v 3 3 h 3 3 V 15.5 14 H 23.5 25 V 15.5 17 H 26.5 28 V 18.5 20 H 26.5 25 v 1.5 1.5 h -3 -3 v 1.5 1.5 h 1.5 1.5 v 1.5 1.5 h -6 -6 z m 9,-18 V 8 H 20.5 22 V 9.5 11 H 20.5 19 Z"
           id="path271" /><path
           style="fill:#000000"
           d="M 19,24.5 V 23 h 3 3 V 24.5 26 H 22 19 Z M 4,14 V 5 H 5.5 7 V 3.5 2 h 9 9 V 3.5 5 h 1.5 1.5 v 3 3 H 26.5 25 V 12.5 14 H 23.5 22 V 15.5 17 H 20.5 19 V 15.5 14 H 17.5 16 V 12.5 11 H 14.5 13 V 15.5 20 H 11.5 10 V 17 14 H 8.5 7 V 18.5 23 H 5.5 4 Z M 22,9.5 V 8 H 20.5 19 V 9.5 11 h 1.5 1.5 z"
           id="path273" /><path
           style="fill:#fefefe"
           d="M 16,15.5 V 14 H 17.5 19 V 15.5 17 H 17.5 16 Z"
           id="path275" /><path
           style="fill:#eee3af"
           d="M 10,27.5 V 26 H 7 4 V 24.5 23 H 5.5 7 V 18.5 14 H 8.5 10 v 3 3 H 11.5 13 V 15.5 11 h 1.5 1.5 v 3 3 h 3 3 V 15.5 14 H 23.5 25 V 15.5 17 H 26.5 28 V 18.5 20 H 26.5 25 v 1.5 1.5 h -3 -3 v 1.5 1.5 h 1.5 1.5 v 1.5 1.5 h -6 -6 z m 9,-18 V 8 H 20.5 22 V 9.5 11 H 20.5 19 Z"
           id="path277" /><path
           style="fill:#000000"
           d="M 19,24.5 V 23 h 3 3 V 24.5 26 H 22 19 Z M 4,14 V 5 H 5.5 7 V 3.5 2 h 9 9 V 3.5 5 h 1.5 1.5 v 3 3 H 26.5 25 V 12.5 14 H 23.5 22 V 15.5 17 H 20.5 19 V 15.5 14 H 17.5 16 V 12.5 11 H 14.5 13 V 15.5 20 H 11.5 10 V 17 14 H 8.5 7 V 18.5 23 H 5.5 4 Z M 22,9.5 V 8 H 20.5 19 V 9.5 11 h 1.5 1.5 z"
           id="path279" /></g></g></g></svg>
